<svg xmlns="http://www.w3.org/2000/svg" viewBox="0 0 500 500"><g id="freepik--background-complete--inject-30"><polygon points="46.98 257.73 135.63 257.73 135.63 199.77 46.98 199.77 46.98 199.78 46.98 257.73 46.98 257.73" style="fill:#dbdbdb"></polygon><polygon points="135.63 216.87 135.63 199.77 153.43 199.77 135.63 216.87" style="fill:#dbdbdb"></polygon><rect x="57.56" y="209.8" width="67.5" height="1.1" style="fill:#fff"></rect><rect x="57.56" y="215.74" width="33.58" height="1.1" style="fill:#fff"></rect><rect x="57.56" y="227.64" width="54.07" height="1.1" style="fill:#fff"></rect><rect x="57.56" y="233.58" width="67.5" height="1.1" style="fill:#fff"></rect><rect x="57.56" y="239.53" width="67.5" height="1.1" style="fill:#fff"></rect><rect x="57.56" y="245.48" width="22.24" height="1.1" style="fill:#fff"></rect><rect x="371.63" y="82.97" width="88.65" height="48.9" style="fill:#ebebeb"></rect><polygon points="371.65 100.06 371.65 82.97 353.85 82.97 371.65 100.06" style="fill:#ebebeb"></polygon><rect x="382.41" y="92" width="40.19" height="1.1" style="fill:#fff"></rect><rect x="382.41" y="97.95" width="67.5" height="1.1" style="fill:#fff"></rect><rect x="382.41" y="103.89" width="67.5" height="1.1" style="fill:#fff"></rect><rect x="382.41" y="109.84" width="54.56" height="1.1" style="fill:#fff"></rect><rect x="382.41" y="115.79" width="67.5" height="1.1" style="fill:#fff"></rect><rect x="382.41" y="121.73" width="24.83" height="1.1" style="fill:#fff"></rect><rect x="371.63" y="139.78" width="88.65" height="36.27" style="fill:#dbdbdb"></rect><polygon points="371.65 156.87 371.65 139.78 353.85 139.78 371.65 156.87" style="fill:#dbdbdb"></polygon><rect x="382.41" y="148.81" width="67.21" height="1.1" style="fill:#fff"></rect><rect x="382.41" y="154.76" width="38.35" height="1.1" style="fill:#fff"></rect><rect x="382.41" y="160.7" width="51.84" height="1.1" style="fill:#fff"></rect><rect x="382.41" y="166.65" width="18.06" height="1.1" style="fill:#fff"></rect><polygon points="54.54 171.81 56.87 176.54 62.09 177.3 58.31 180.98 59.21 186.18 54.54 183.72 49.87 186.18 50.76 180.98 46.98 177.3 52.2 176.54 54.54 171.81" style="fill:#535C91"></polygon><polygon points="75.09 171.81 77.43 176.54 82.64 177.3 78.87 180.98 79.76 186.18 75.09 183.72 70.42 186.18 71.32 180.98 67.54 177.3 72.76 176.54 75.09 171.81" style="fill:#535C91"></polygon><polygon points="95.65 171.81 97.98 176.54 103.2 177.3 99.42 180.98 100.31 186.18 95.65 183.72 90.98 186.18 91.87 180.98 88.09 177.3 93.31 176.54 95.65 171.81" style="fill:#535C91"></polygon><polygon points="116.2 171.81 118.53 176.54 123.75 177.3 119.98 180.98 120.87 186.18 116.2 183.72 111.53 186.18 112.42 180.98 108.65 177.3 113.87 176.54 116.2 171.81" style="fill:#c7c7c7"></polygon><polygon points="136.75 171.81 139.09 176.54 144.31 177.3 140.53 180.98 141.42 186.18 136.75 183.72 132.09 186.18 132.98 180.98 129.2 177.3 134.42 176.54 136.75 171.81" style="fill:#c7c7c7"></polygon><circle cx="116.2" cy="107.42" r="33.53" transform="translate(-15.73 20.04) rotate(-9.23)" style="fill:#ebebeb"></circle><path d="M134,94.88a4.72,4.72,0,1,1-5.91-3.09A4.72,4.72,0,0,1,134,94.88Z" style="fill:#c7c7c7"></path><path d="M103.44,104.47a4.72,4.72,0,1,1-5.91-3.09A4.72,4.72,0,0,1,103.44,104.47Z" style="fill:#c7c7c7"></path><path d="M105.46,101.69a10.61,10.61,0,0,0,4.46,4,8.19,8.19,0,0,0,5.63.12,7.91,7.91,0,0,0,4.58-3.24,11.62,11.62,0,0,0,1.68-5.77,9.07,9.07,0,0,1-.61,6.39,7.79,7.79,0,0,1-2.16,2.62,10,10,0,0,1-3,1.52,10.45,10.45,0,0,1-3.35.41,7.79,7.79,0,0,1-3.27-1A8.47,8.47,0,0,1,105.46,101.69Z" style="fill:#c7c7c7"></path><circle cx="408.33" cy="283.76" r="33.53" transform="translate(45.43 623.69) rotate(-77.92)" style="fill:#ebebeb"></circle><path d="M429.93,286.44a4.72,4.72,0,1,1-2.3-6.27A4.71,4.71,0,0,1,429.93,286.44Z" style="fill:#c7c7c7"></path><path d="M400.87,273a4.72,4.72,0,1,1-2.3-6.27A4.71,4.71,0,0,1,400.87,273Z" style="fill:#c7c7c7"></path><path d="M416.15,287.19a10.61,10.61,0,0,0-.64-5.95,8.2,8.2,0,0,0-4.08-3.88,8,8,0,0,0-5.57-.68,11.69,11.69,0,0,0-5.12,3.15,9.05,9.05,0,0,1,4.74-4.32,7.84,7.84,0,0,1,3.37-.49,10,10,0,0,1,3.27.92,10.51,10.51,0,0,1,2.75,1.95,7.69,7.69,0,0,1,1.78,2.91A8.53,8.53,0,0,1,416.15,287.19Z" style="fill:#c7c7c7"></path></g><g id="freepik--Shadow--inject-30"><ellipse cx="250" cy="440.9" rx="198.31" ry="22.08" style="fill:#ebebeb"></ellipse></g><g id="freepik--Floor--inject-30"><polygon points="46.98 418.81 97.74 418.57 148.49 418.48 250 418.32 351.51 418.48 402.26 418.57 453.01 418.81 402.26 419.06 351.51 419.15 250 419.31 148.49 419.15 97.74 419.06 46.98 418.81" style="fill:#263238"></polygon></g><g id="freepik--Plant--inject-30"><path d="M140.93,307.22c-4-3.9-9.13-8.62-15.21-6.93-5.73,1.58-7.92,7.83-9,13-1.32,6.71-2.35,13.49-3.41,20.25s-2.09,13.65-3.07,20.49q-.83,5.79-1.64,11.58l-.81,5.79c-.26,1.89-.58,3.78-.68,5.69a.54.54,0,0,0,1,.12c.74-3.22,1.05-6.57,1.52-9.84s1-6.57,1.43-9.85q1.44-9.8,2.93-19.58t3-19.56c.88-5.52,1.3-12.39,6.2-16a9.47,9.47,0,0,1,9.16-.85c3.22,1.23,5.8,3.53,8.32,5.82C140.89,307.41,141,307.29,140.93,307.22Z" style="fill:#263238"></path><path d="M135.48,303.23s-8.14-2.93-12.15,3,.78,21,37.83,29.56a104.63,104.63,0,0,0-8.91-33.49C144.3,285,130.15,291.55,135.48,303.23Z" style="fill:#535C91"></path><path d="M159,333.33a29.93,29.93,0,0,0-1.86-3c-.62-1-1.25-1.91-1.88-2.85-.48-.72-1-1.42-1.45-2.13,0-.17,0-.35.07-.53l.12-1c.09-.69.2-1.38.3-2.08s.22-1.38.35-2.06a10.69,10.69,0,0,1,.48-2.19c.05-.11-.15-.16-.16,0a8.94,8.94,0,0,1-.33,1.23c-.09.31-.17.62-.25.93-.18.7-.35,1.41-.51,2.12s-.27,1.3-.38,2c-.05.32-.1.64-.14.95-.66-.94-1.34-1.87-2-2.79-2-2.59-4.05-5.08-6.2-7.51,0,0,0,0,0-.07.19-3.89.1-7.75,1-11.58,0-.1-.13-.16-.15-.05a39.83,39.83,0,0,0-1.39,11.07c-.77-.86-1.55-1.72-2.34-2.57-1.81-1.94-3.64-3.85-5.52-5.72-.08-.07-.2,0-.12.12,3.12,3.36,6.08,6.86,9,10.42a66.5,66.5,0,0,0-6.77.25c-2.51.19-5,.51-7.5.85a.09.09,0,0,0,0,.17,69.45,69.45,0,0,1,7.49-.67c2.42-.1,4.82,0,7.23,0,1.56,1.93,3.11,3.88,4.63,5.85h-.34c-.57,0-1.14,0-1.71,0-1.12,0-2.25.1-3.37.2a49.28,49.28,0,0,0-6.84,1,.08.08,0,1,0,0,.16c2.27-.25,4.56-.47,6.85-.55,1.09,0,2.18,0,3.27,0h1.71a2.18,2.18,0,0,0,.93-.09c1,1.3,2,2.59,3,3.89.79,1,1.56,2.08,2.33,3.13s1.48,2.25,2.34,3.26A.09.09,0,0,0,159,333.33Z" style="fill:#263238"></path><path d="M139,311.65a23.84,23.84,0,0,0-4-.2c-1.32,0-2.65,0-4,.09a.08.08,0,1,0,0,.16c1.34-.09,2.68-.12,4-.1s2.59.15,3.89.11A0,0,0,1,0,139,311.65Z" style="fill:#263238"></path><path d="M150.65,314.63c.15-1.26.31-2.53.58-3.78a.08.08,0,1,0-.16,0c-.19,1.24-.43,2.48-.62,3.72-.09.63-.18,1.25-.25,1.88a8.72,8.72,0,0,0-.15,1.76c0,.11.19.13.21,0a11.57,11.57,0,0,0,.2-1.76C150.51,315.83,150.58,315.23,150.65,314.63Z" style="fill:#263238"></path><path d="M148.21,300.61c-.32,1.23-.64,2.48-.87,3.73q-.17,1-.3,1.92a7.81,7.81,0,0,0-.12,1.87c0,.05.08.05.09,0a10.79,10.79,0,0,0,.3-1.79c.08-.61.17-1.23.28-1.84.22-1.29.45-2.57.78-3.84C148.4,300.57,148.24,300.51,148.21,300.61Z" style="fill:#263238"></path><path d="M100,375.75q-.3-3.5-.68-7c-.48-4.61-1.05-9.22-1.67-13.82s-1.2-9.18-1.94-13.75A35,35,0,0,0,94.27,335a6,6,0,0,0-3.46-3.9c-4.36-1.51-7.3,3-9.06,6.21a.09.09,0,0,0,.15.08c1-1.51,4-5.77,7.27-5.57,2.22.14,4,1.71,5.07,7.26,2.66,13.82,5.06,41.87,5.34,43.71.15,1,.84.93.84-.11C100.44,380.33,100.17,378,100,375.75Z" style="fill:#263238"></path><path d="M82.93,335.54s3.8-13.45-4.62-6.73c-14,11.2-14.51,35.56-14.51,35.56s24.92-14.48,28-24C96.43,326.12,82.93,335.54,82.93,335.54Z" style="fill:#535C91"></path><path d="M87.64,342.14c-2,.4-3.94.66-5.91.94l-2.81.4c-.63.09-1.27.15-1.9.22,1.85-2.55,3.73-5.1,5.51-7.71.06-.1-.09-.2-.17-.12a58.06,58.06,0,0,0-4.17,4.8c-.36-1-.73-2.08-1.1-3.12-.42-1.2-.88-2.4-1.19-3.64,0-.11-.18-.06-.16,0,.34,1.24.59,2.5.92,3.73s.68,2.38,1.1,3.54c-.91,1.18-1.79,2.4-2.64,3.62-.43-1.21-1-2.39-1.34-3.62a.08.08,0,0,0-.16,0c.45,1.37.69,2.79,1.11,4.16-.57.84-1.14,1.67-1.69,2.52-1,1.55-2,3.14-2.88,4.73a.36.36,0,0,0-.22.38c-1.58,2.72-3.07,5.49-4.55,8.27,0,.1.09.18.14.08,1.48-2.75,3.13-5.43,4.84-8.06h0a4,4,0,0,1,.81-.16c.29-.05.58-.12.86-.18.65-.14,1.29-.31,1.93-.47,1.26-.31,2.51-.61,3.8-.83.1,0,0-.18-.05-.16-1.51.29-3,.46-4.55.63-.72.09-1.44.18-2.15.29l-.11,0q1.35-2,2.73-4.05c.9-1.31,1.83-2.61,2.77-3.91.86-.12,1.72-.34,2.58-.51l2.89-.56c1.93-.38,3.85-.81,5.79-1.14C87.8,342.29,87.75,342.12,87.64,342.14Z" style="fill:#263238"></path><path d="M72.67,343.47c-.12-.36-.23-.71-.34-1.07a19.16,19.16,0,0,1-.57-2.26c0-.1-.19-.05-.16.05.16.76.34,1.52.51,2.28a14.25,14.25,0,0,0,.65,2.23.15.15,0,0,0,.29-.08C72.94,344.23,72.79,343.85,72.67,343.47Z" style="fill:#263238"></path><path d="M90.19,339c-1.13.17-2.28.25-3.42.35s-2.29.26-3.43.43c-.06,0-.06.11,0,.1,1.15-.08,2.29-.17,3.43-.32s2.28-.31,3.43-.39C90.31,339.19,90.3,339,90.19,339Z" style="fill:#263238"></path><path d="M118.31,358.72c-.44-9.9-1.07-19.79-2.07-29.66-.49-4.91-1-9.82-1.74-14.71a104.58,104.58,0,0,0-2.83-14.24,27.33,27.33,0,0,0-4.75-10,10.73,10.73,0,0,0-9.57-4.18c-4.34.54-7.83,3.27-10.85,6.23-3.38,3.33-6.49,7-9.62,10.53-.8.9-1.58,1.81-2.37,2.72-.07.08,0,.19.13.11,3.06-3.52,6.25-6.94,9.58-10.22,3.09-3,6.26-6.33,10.53-7.58a10.77,10.77,0,0,1,6.11-.14,9.76,9.76,0,0,1,4.18,2.64c2.4,2.5,3.75,5.89,4.71,9.16,2.67,9.11,3.62,18.65,4.61,28.06s1.68,19.13,2.16,28.72.86,19.3,1.79,28.91c.12,1.19.27,2.37.42,3.55.1.8,1.34.8,1.27,0C119.21,378.62,118.76,368.68,118.31,358.72Z" style="fill:#263238"></path><path d="M86,293.2s5.65-10.47-1-13.83S55.88,301,49.34,337.49c0,0,36.13-16,48.4-31.91S96.1,286.15,86,293.2Z" style="fill:#535C91"></path><path d="M91.27,301.71c-4.06,0-8.11-.31-12.17-.28.76-.87,1.52-1.75,2.29-2.61a38.32,38.32,0,0,0,3.17-3.69c.06-.08-.07-.2-.15-.14a29.76,29.76,0,0,0-3.07,3.08q-1.53,1.62-3,3.26c-1.55,1.68-3.07,3.38-4.59,5.09V303.8c0-1.38,0-2.76.05-4.13,0-2.8,0-5.6.21-8.39,0-.1-.16-.1-.17,0-.19,2.8-.48,5.59-.62,8.39-.07,1.38-.1,2.75-.12,4.13,0,.71,0,1.43,0,2.14,0,.38,0,.79,0,1.19-.24.27-.49.53-.72.8-3.24,3.7-6.32,7.53-9.32,11.43,0-.22,0-.44-.06-.65,0-.43-.09-.86-.14-1.29-.1-.93-.23-1.86-.37-2.78s-.27-1.74-.41-2.61-.41-2-.48-3a.09.09,0,1,0-.17,0,24.7,24.7,0,0,1,.34,3c.09.89.17,1.78.25,2.68s.16,1.79.26,2.68l.12,1.29c0,.21.05.43.08.64a1.21,1.21,0,0,0,.18.51c-.52.67-1,1.34-1.55,2-2,2.71-4.06,5.45-6.07,8.19-.06.09.06.2.12.12C57,327.73,59,325.29,61,322.88c1.49.06,3-.05,4.49-.07s3.14,0,4.7,0a.09.09,0,0,0,0-.17c-1.57,0-3.13,0-4.7.06s-2.89-.07-4.32,0c1.75-2.12,3.52-4.23,5.29-6.34.64-.77,1.29-1.53,1.94-2.3a9.11,9.11,0,0,0,1.81.06h2.14c1.33,0,2.67,0,4-.06,2.76,0,5.52-.13,8.27-.14a.08.08,0,1,0,0-.16c-2.76,0-5.52-.16-8.28-.23-1.34,0-2.67-.07-4-.09l-2.14,0c-.4,0-.82,0-1.23,0l4.55-5.4a.14.14,0,0,0,.08-.1c1.49-1.74,3-3.49,4.46-5.22.21-.24.42-.47.62-.71,4.21.13,8.42-.14,12.62-.06A.09.09,0,0,0,91.27,301.71Z" style="fill:#263238"></path><path d="M89.19,308.89h-1c-.1,0-.09.15,0,.15h1C89.3,309.06,89.3,308.89,89.19,308.89Z" style="fill:#263238"></path><path d="M87,308.9c-1.31,0-2.61,0-3.91-.08l-1.95-.06a7.3,7.3,0,0,0-1.81,0c-.07,0,0,.1,0,.12a6.92,6.92,0,0,0,1.82.13l2,0H87C87.12,309.07,87.11,308.9,87,308.9Z" style="fill:#263238"></path><path d="M75.65,321.09a55,55,0,0,0-8-.72,0,0,0,0,0,0,.06c2.65.25,5.31.4,8,.83C75.71,321.27,75.75,321.11,75.65,321.09Z" style="fill:#263238"></path><path d="M64.79,309.47c0-.23-.05-.46-.08-.7-.07-.52-.16-1-.24-1.56-.15-1-.33-2-.52-3,0-.09-.17-.07-.16,0q.2,1.53.33,3.06c0,.51.08,1,.13,1.51a4.23,4.23,0,0,0,.2,1.43.19.19,0,0,0,.35,0A1.89,1.89,0,0,0,64.79,309.47Z" style="fill:#263238"></path><path d="M118,279.75c-1.29-2.4-2.93-5.58-6.16-5.38-2.67.16-3.87,2.88-4.44,5.13-1.76,6.95-1.88,14.29-2.22,21.41-.73,15.06-1.38,30.14-1.47,45.21q0,6.27,0,12.54c0,4.26,0,8.55.3,12.81a.32.32,0,0,0,.63,0c0-3.65-.11-7.29-.12-10.94s0-7.12.07-10.67q.16-10.81.58-21.62c.26-7.16.58-14.31.88-21.47.15-3.58.3-7.15.46-10.73s.31-6.93.71-10.38c.22-1.93.5-3.86.91-5.76a8,8,0,0,1,1.66-3.86,3.64,3.64,0,0,1,4.71-.35,10,10,0,0,1,3.34,4.17C117.86,279.94,118,279.85,118,279.75Z" style="fill:#263238"></path><path d="M117.08,278.6s-2.65-9.37,3.21-4.68c9.77,7.8,10.12,24.76,10.12,24.76S113.05,288.6,110.89,282C107.67,272,117.08,278.6,117.08,278.6Z" style="fill:#535C91"></path><path d="M126.75,291.73c-.15-.26-.32-.51-.49-.77a5.34,5.34,0,0,0,0-.8c0-.4,0-.81,0-1.21q0-1.18.09-2.37c0-.11-.16-.1-.17,0,0,.78-.07,1.55-.09,2.33,0,.39,0,.78,0,1.17,0,.15,0,.32,0,.5-.69-1.06-1.38-2.11-2.11-3.14-.21-.3-.43-.59-.64-.88a17.38,17.38,0,0,1,0-3.06c0-1.09,0-2.18.06-3.27,0-.11-.16-.1-.17,0,0,1.14-.08,2.27-.14,3.4a21.84,21.84,0,0,0-.07,2.43c-1.68-2.28-3.45-4.48-5.25-6.67-.06-.07-.19,0-.13.11,1.11,1.41,2.18,2.85,3.23,4.32-2-.48-4.12-.75-6.2-1.05-.1,0-.14.14,0,.16,2.2.33,4.36.88,6.53,1.36,0,0,0,0,0,0l2.47,3.53,1,1.45h-.09l-.67-.09c-.48-.06-1-.1-1.45-.13-1-.08-2-.14-3-.19a.09.09,0,0,0,0,.17c1,0,2,.1,3,.2l1.55.19.68.08.2,0,1.67,2.46c1,1.45,1.85,3,2.9,4.4a.08.08,0,0,0,.14-.08A43.35,43.35,0,0,0,126.75,291.73Z" style="fill:#263238"></path><path d="M122.43,281.14c0-.36,0-.73,0-1.09a17.69,17.69,0,0,1,.09-2.3.08.08,0,1,0-.16,0c0,.75-.09,1.51-.12,2.27,0,.38,0,.76,0,1.14v.52a1.45,1.45,0,0,0,0,.55.07.07,0,0,0,.14,0,1.45,1.45,0,0,0,0-.51C122.43,281.52,122.43,281.33,122.43,281.14Z" style="fill:#263238"></path><path d="M120.29,285c-.65-.11-1.31-.15-2-.2s-1.43-.13-2.15-.22a.09.09,0,1,0,0,.17c1.37.08,2.74.33,4.11.38C120.35,285.16,120.36,285,120.29,285Z" style="fill:#263238"></path><path d="M125.74,285.08c.05.07,0,.28,0,.36v.31c0,.21,0,.43,0,.65v.66a1.37,1.37,0,0,0,0,.57,0,0,0,0,0,.06,0,.51.51,0,0,0,0-.27c0-.1,0-.21,0-.31v-.65c0-.22,0-.44,0-.66v-.3c0-.09,0-.28,0-.36S125.63,284.93,125.74,285.08Z" style="fill:#263238"></path><path d="M118.36,329.76c-3.65-2.75-6.93-6.68-11.84-6.88-4.06-.16-6.9,2.89-8.52,6.29a35.85,35.85,0,0,0-2,5.6c-.73,2.57-1.42,5.14-2.07,7.73q-1.91,7.63-3.25,15.4c-.49,2.89-1,5.78-1.32,8.68a76,76,0,0,0-.85,8.89.46.46,0,0,0,.91.1c.49-2.43.7-4.94,1.06-7.39s.73-4.93,1.15-7.39q1.24-7.38,2.91-14.68c1-4.59,2.07-9.26,3.55-13.73,1.07-3.21,2.77-6.95,6.23-8.1,5.27-1.76,10.06,2.7,13.91,5.6C118.33,329.94,118.44,329.82,118.36,329.76Z" style="fill:#263238"></path><path d="M114.58,327.13s-3.36-9.61,1.5-11.49c7.3-2.82,26.39,18.68,22.65,51.63,0,0-14.75-8.13-25.64-17.27s-13.68-21.08-8.89-24.17S114.58,327.13,114.58,327.13Z" style="fill:#535C91"></path><path d="M136.53,360.21a26.42,26.42,0,0,0-1.77-3.32c-.63-1.13-1.26-2.26-1.91-3.37-1.27-2.17-2.53-4.34-3.83-6.49l-.64-1c0-.13.06-.26.08-.39.08-.32.15-.63.22-1,.16-.72.29-1.44.42-2.16.27-1.41.51-2.84.89-4.22,0-.1-.14-.14-.16,0-.3,1.41-.75,2.8-1.17,4.17-.2.68-.42,1.36-.6,2l-.18.7c-1.57-2.57-3.17-5.13-4.89-7.6a3.32,3.32,0,0,0,.17-1.06c0-.48.11-1,.17-1.44.13-1.09.25-2.17.41-3.25.32-2.12.63-4.23,1.16-6.31,0-.11-.14-.14-.17,0-.52,2.07-1.09,4.15-1.49,6.25-.19,1-.37,2.07-.51,3.11-.07.52-.13,1-.18,1.57,0,.15,0,.31-.06.47-.53-.75-1.06-1.5-1.61-2.22-1.69-2.22-3.43-4.39-5.19-6.54-.07-.08-.21,0-.14.09a116.31,116.31,0,0,1,8.29,12.12c.49.77,1,1.55,1.44,2.33l-.48-.06c-.61-.08-1.24-.12-1.86-.17l-3.72-.33c-2.49-.2-5-.35-7.46-.61-.1,0-.13.15,0,.16,2.52.29,5,.69,7.52,1.05l3.69.5a15.55,15.55,0,0,0,2.85.29l2.93,4.75a4.85,4.85,0,0,0-.66,0h-3.55c-1.6,0-3.2,0-4.8,0-.11,0-.09.16,0,.16,1.62,0,3.24.1,4.86.19.77,0,1.54.08,2.3.14l1.16.08a2.29,2.29,0,0,0,1,0l2.49,4.05c.76,1.24,1.54,2.49,2.33,3.72a29.46,29.46,0,0,0,2.5,3.75C136.43,360.37,136.57,360.31,136.53,360.21Z" style="fill:#263238"></path><path d="M129.5,333.58a24.2,24.2,0,0,1-.66,3.13c-.27,1.07-.58,2.12-.93,3.17a.1.1,0,1,0,.2.06c.33-1,.62-2.08.88-3.14s.42-2.14.67-3.19C129.69,333.5,129.51,333.47,129.5,333.58Z" style="fill:#263238"></path><path d="M118.66,340a1.27,1.27,0,0,0-.8-.3l-1.4-.19c-.86-.12-1.72-.21-2.59-.31-1.8-.21-3.6-.39-5.39-.61-.11,0-.14.15,0,.16,1.69.21,3.38.46,5.07.69l2.49.32,1.2.13a4.2,4.2,0,0,1,1.37.24C118.66,340.18,118.72,340.07,118.66,340Z" style="fill:#263238"></path><path d="M129.47,354.5c-.84-.07-1.7-.1-2.55-.12l-1.29,0-.62,0a3.55,3.55,0,0,1-.8-.05c-.12,0-.13.19,0,.17a3.88,3.88,0,0,1,.76,0l.67,0,1.28.08c.85.05,1.71.1,2.56.11C129.57,354.69,129.58,354.51,129.47,354.5Z" style="fill:#263238"></path><path d="M134.68,350.82l.27-1.45c.18-.95.35-1.9.53-2.85a.09.09,0,0,0-.17,0c-.21.92-.42,1.85-.62,2.77-.11.47-.21.93-.31,1.39,0,.22-.09.43-.13.65a1.74,1.74,0,0,0-.08.68c0,.07.13.14.19.06A3.61,3.61,0,0,0,134.68,350.82Z" style="fill:#263238"></path><polygon points="126.25 379.22 125.55 392.83 123.45 433.04 80.44 433.04 78.34 392.83 77.64 379.22 126.25 379.22" style="fill:#455a64"></polygon><polygon points="126.25 379.22 125.55 392.83 78.34 392.83 77.64 379.22 126.25 379.22" style="fill:#263238"></polygon><rect x="74.34" y="369.58" width="55.2" height="13.63" style="fill:#455a64"></rect></g></svg>